<svg width="96" height="96" viewBox="0 0 96 96" fill="none" xmlns="http://www.w3.org/2000/svg">
<rect width="96" height="96" fill="#F0F0F0"/>
<circle cx="48" cy="48" r="16" fill="#61DAFB"/>
<path d="M48 0C21.49 0 0 21.49 0 48C0 74.51 21.49 96 48 96C74.51 96 96 74.51 96 48C96 21.49 74.51 0 48 0ZM48 12C67.89 12 84 28.11 84 48C84 67.89 67.89 84 48 84C28.11 84 12 67.89 12 48C12 28.11 28.11 12 48 12Z" fill="#20232A"/>
<path d="M48 24V72M28.704 34.704L67.296 61.296M28.704 61.296L67.296 34.704" stroke="#61DAFB" stroke-width="4" stroke-linecap="round"/>
</svg>
